<svg width="50" height="50" viewBox="0 0 50 50" fill="none" xmlns="http://www.w3.org/2000/svg">
<g clip-path="url(#clip0_12_215)">
<path fill-rule="evenodd" clip-rule="evenodd" d="M33.4562 45.4891C33.4125 45.5078 33.3656 45.5234 33.3195 45.5375C33.3062 45.5414 33.2953 45.5477 33.2836 45.5516L33.282 45.5492C33.1328 45.5969 32.9766 45.6305 32.8117 45.6305C31.9484 45.6305 31.2492 44.9305 31.2492 44.068C31.2492 43.3766 31.7 42.7992 32.3195 42.5906L32.3094 42.5625C40.7914 39.7664 46.875 32.2711 46.875 23.4375C46.875 12.2203 37.082 3.125 25 3.125C12.9187 3.125 3.125 12.2203 3.125 23.4375C3.125 29.6859 6.17812 35.2555 10.9617 38.9773C10.9867 39.0078 10.9961 39.0422 11.0305 39.0687C11.9242 39.7602 12.5 40.843 12.5 42.0586V46.6555L17.8086 43.0359L17.8148 43.0437C18.0758 42.8469 18.3977 42.7258 18.75 42.7258C19.6133 42.7258 20.3125 43.425 20.3125 44.2883C20.3125 44.8852 19.9734 45.3984 19.4813 45.6594L14.025 49.4797C13.5484 49.8078 12.9703 50.0008 12.3477 50.0008C10.7063 50 9.375 48.6687 9.375 47.0281V41.725C3.66094 37.432 0 30.8375 0 23.4375C0 10.493 11.193 0 25 0C38.807 0 50 10.493 50 23.4375C50 33.5969 43.0984 42.2367 33.4562 45.4891ZM11.2734 29.032C10.7445 28.3219 10.8711 27.3047 11.557 26.7594L21.1758 19.0875C21.8617 18.5398 22.8469 18.6727 23.3758 19.3812L28.1641 25.7961L36.543 19.1141C37.2289 18.5664 38.2141 18.6969 38.7437 19.4055C39.2727 20.1156 39.1453 21.1328 38.4602 21.6781L28.8391 29.35C28.1531 29.8977 27.168 29.7648 26.6406 29.0562L21.8508 22.6414L13.4719 29.3234C12.7859 29.8711 11.8008 29.7406 11.2734 29.032ZM26.5625 43.75C27.4258 43.75 28.125 44.4492 28.125 45.3125C28.125 46.1758 27.4258 46.875 26.5625 46.875C25.6992 46.875 25 46.1758 25 45.3125C25 44.4492 25.6992 43.75 26.5625 43.75Z" fill="#288EF7"/>
</g>
<defs>
<clipPath id="clip0_12_215">
<rect width="50" height="50" fill="white"/>
</clipPath>
</defs>
</svg>
